<?xml version="1.0" encoding="UTF-8" standalone="no"?>
<!DOCTYPE svg PUBLIC "-//W3C//DTD SVG 1.1//EN" "http://www.w3.org/Graphics/SVG/1.1/DTD/svg11.dtd">
<svg version="1.1" xmlns="http://www.w3.org/2000/svg" xmlns:xlink="http://www.w3.org/1999/xlink" preserveAspectRatio="xMidYMid meet" viewBox="0 0 640 640" width="640" height="640"><defs><path d="M640 213.15C640 213.15 640 213.15 640 213.15C640 469.16 640 611.38 640 639.82C640 639.82 640 639.82 640 639.82C256 639.82 42.67 639.82 0 639.82C0 639.82 0 639.82 0 639.82C0 383.82 0 241.6 0 213.15C0 213.15 0 213.15 0 213.15C384 213.15 597.33 213.15 640 213.15Z" id="b29mW9YzIM"></path><path d="M280 213.16L280 386.49L0 386.49L0 466.49L280 466.49L280 639.82L360 639.82L360 466.49L640 466.49L640 386.49L360 386.49L360 213.16L280 213.16Z" id="aaqCcXI82o"></path><path d="M640 582.79L640 500.69L492.23 500.69L640 582.79Z" id="dgvU2hvP"></path><path d="M640 639.82L640 600.48L460.38 500.69L389.57 500.69L640 639.82Z" id="i72SemXVRD"></path><path d="M389.57 537.74L389.57 639.82L573.29 639.82L389.57 537.74Z" id="c16bCvbs6c"></path><path d="M640 639.82L640 600.48L460.38 500.69L389.57 500.69L640 639.82Z" id="a6JeK1zWIE"></path><path d="M640 639.82L640 600.48L460.38 500.69L389.57 500.69L640 639.82Z" id="f2NVOnWmVK"></path><path d="M0 563.43L0 500.69L112.93 500.69L0 563.43Z" id="b2i1EqmJJy"></path><path d="M250.44 639.82L31.86 639.82L250.44 518.38L250.44 639.82Z" id="d8UvawHJH"></path><path d="M0 600.48L0 639.82L0 639.82L250.44 500.69L179.62 500.69L0 600.48Z" id="h2H647f5"></path><path d="M0 270.19L0 352.29L147.77 352.29L0 270.19Z" id="a39hNJfbIZ"></path><path d="M0 213.16L0 252.5L179.62 352.29L250.44 352.29L0 213.16Z" id="asyp9fYfC"></path><path d="M250.44 315.24L250.44 213.16L66.71 213.16L250.44 315.24Z" id="atk8nAOo3"></path><path d="M0 213.16L0 252.5L179.62 352.29L250.44 352.29L0 213.16Z" id="a2dPuR0L95"></path><path d="M0 213.16L0 252.5L179.62 352.29L250.44 352.29L0 213.16Z" id="aNLF2qQB"></path><path d="M640 289.55L640 352.29L527.07 352.29L640 289.55Z" id="b2fLAghdR"></path><path d="M389.57 213.16L608.14 213.16L389.57 334.6L389.57 213.16Z" id="b64rugMsn"></path><path d="M640 252.5L640 213.16L640 213.16L389.57 352.29L460.38 352.29L640 252.5Z" id="a77l7duKTm"></path></defs><g><g><g><use xlink:href="#b29mW9YzIM" opacity="1" fill="#f0f0f0" fill-opacity="1"></use><g><use xlink:href="#b29mW9YzIM" opacity="1" fill-opacity="0" stroke="#000000" stroke-width="1" stroke-opacity="0"></use></g></g><g><use xlink:href="#aaqCcXI82o" opacity="1" fill="#d80027" fill-opacity="1"></use><g><use xlink:href="#aaqCcXI82o" opacity="1" fill-opacity="0" stroke="#000000" stroke-width="1" stroke-opacity="0"></use></g></g><g><use xlink:href="#dgvU2hvP" opacity="1" fill="#0052b4" fill-opacity="1"></use><g><use xlink:href="#dgvU2hvP" opacity="1" fill-opacity="0" stroke="#000000" stroke-width="1" stroke-opacity="0"></use></g></g><g><use xlink:href="#i72SemXVRD" opacity="1" fill="#0052b4" fill-opacity="1"></use><g><use xlink:href="#i72SemXVRD" opacity="1" fill-opacity="0" stroke="#000000" stroke-width="1" stroke-opacity="0"></use></g></g><g><use xlink:href="#c16bCvbs6c" opacity="1" fill="#0052b4" fill-opacity="1"></use><g><use xlink:href="#c16bCvbs6c" opacity="1" fill-opacity="0" stroke="#000000" stroke-width="1" stroke-opacity="0"></use></g></g><g><use xlink:href="#a6JeK1zWIE" opacity="1" fill="#f0f0f0" fill-opacity="1"></use><g><use xlink:href="#a6JeK1zWIE" opacity="1" fill-opacity="0" stroke="#000000" stroke-width="1" stroke-opacity="0"></use></g></g><g><use xlink:href="#f2NVOnWmVK" opacity="1" fill="#d80027" fill-opacity="1"></use><g><use xlink:href="#f2NVOnWmVK" opacity="1" fill-opacity="0" stroke="#000000" stroke-width="1" stroke-opacity="0"></use></g></g><g><use xlink:href="#b2i1EqmJJy" opacity="1" fill="#0052b4" fill-opacity="1"></use><g><use xlink:href="#b2i1EqmJJy" opacity="1" fill-opacity="0" stroke="#000000" stroke-width="1" stroke-opacity="0"></use></g></g><g><use xlink:href="#d8UvawHJH" opacity="1" fill="#0052b4" fill-opacity="1"></use><g><use xlink:href="#d8UvawHJH" opacity="1" fill-opacity="0" stroke="#000000" stroke-width="1" stroke-opacity="0"></use></g></g><g><use xlink:href="#h2H647f5" opacity="1" fill="#d80027" fill-opacity="1"></use><g><use xlink:href="#h2H647f5" opacity="1" fill-opacity="0" stroke="#000000" stroke-width="1" stroke-opacity="0"></use></g></g><g><use xlink:href="#a39hNJfbIZ" opacity="1" fill="#0052b4" fill-opacity="1"></use><g><use xlink:href="#a39hNJfbIZ" opacity="1" fill-opacity="0" stroke="#000000" stroke-width="1" stroke-opacity="0"></use></g></g><g><use xlink:href="#asyp9fYfC" opacity="1" fill="#0052b4" fill-opacity="1"></use><g><use xlink:href="#asyp9fYfC" opacity="1" fill-opacity="0" stroke="#000000" stroke-width="1" stroke-opacity="0"></use></g></g><g><use xlink:href="#atk8nAOo3" opacity="1" fill="#0052b4" fill-opacity="1"></use><g><use xlink:href="#atk8nAOo3" opacity="1" fill-opacity="0" stroke="#000000" stroke-width="1" stroke-opacity="0"></use></g></g><g><use xlink:href="#a2dPuR0L95" opacity="1" fill="#f0f0f0" fill-opacity="1"></use><g><use xlink:href="#a2dPuR0L95" opacity="1" fill-opacity="0" stroke="#000000" stroke-width="1" stroke-opacity="0"></use></g></g><g><use xlink:href="#aNLF2qQB" opacity="1" fill="#d80027" fill-opacity="1"></use><g><use xlink:href="#aNLF2qQB" opacity="1" fill-opacity="0" stroke="#000000" stroke-width="1" stroke-opacity="0"></use></g></g><g><use xlink:href="#b2fLAghdR" opacity="1" fill="#0052b4" fill-opacity="1"></use><g><use xlink:href="#b2fLAghdR" opacity="1" fill-opacity="0" stroke="#000000" stroke-width="1" stroke-opacity="0"></use></g></g><g><use xlink:href="#b64rugMsn" opacity="1" fill="#0052b4" fill-opacity="1"></use><g><use xlink:href="#b64rugMsn" opacity="1" fill-opacity="0" stroke="#000000" stroke-width="1" stroke-opacity="0"></use></g></g><g><use xlink:href="#a77l7duKTm" opacity="1" fill="#d80027" fill-opacity="1"></use><g><use xlink:href="#a77l7duKTm" opacity="1" fill-opacity="0" stroke="#000000" stroke-width="1" stroke-opacity="0"></use></g></g></g></g></svg>