<?xml version="1.0" encoding="UTF-8" standalone="no"?>
<!DOCTYPE svg PUBLIC "-//W3C//DTD SVG 1.1//EN" "http://www.w3.org/Graphics/SVG/1.1/DTD/svg11.dtd">
<svg version="1.1" xmlns="http://www.w3.org/2000/svg" xmlns:xlink="http://www.w3.org/1999/xlink" preserveAspectRatio="xMidYMid meet" viewBox="0 0 640 640" width="640" height="640"><defs><path d="M640 213.67C640 213.67 640 213.67 640 213.67C640 469.67 640 611.88 640 640.33C640 640.33 640 640.33 640 640.33C256 640.33 42.67 640.33 0 640.33C0 640.33 0 640.33 0 640.33C0 384.33 0 242.12 0 213.67C0 213.67 0 213.67 0 213.67C384 213.67 597.33 213.67 640 213.67Z" id="b2K3rQFiRJ"></path><path d="M640 213.67C640 213.67 640 213.67 640 213.67C640 299 640 346.41 640 355.89C640 355.89 640 355.89 640 355.89C256 355.89 42.67 355.89 0 355.89C0 355.89 0 355.89 0 355.89C0 270.56 0 223.15 0 213.67C0 213.67 0 213.67 0 213.67C384 213.67 597.33 213.67 640 213.67Z" id="e1OmcAQQRM"></path><path d="M640 498.11C640 498.11 640 498.11 640 498.11C640 583.44 640 630.85 640 640.33C640 640.33 640 640.33 640 640.33C256 640.33 42.67 640.33 0 640.33C0 640.33 0 640.33 0 640.33C0 555 0 507.59 0 498.11C0 498.11 0 498.11 0 498.11C384 498.11 597.33 498.11 640 498.11Z" id="hXBFshSq9"></path></defs><g><g><g><use xlink:href="#b2K3rQFiRJ" opacity="1" fill="#f0f0f0" fill-opacity="1"></use><g><use xlink:href="#b2K3rQFiRJ" opacity="1" fill-opacity="0" stroke="#000000" stroke-width="1" stroke-opacity="0"></use></g></g><g><use xlink:href="#e1OmcAQQRM" opacity="1" fill="#a2001d" fill-opacity="1"></use><g><use xlink:href="#e1OmcAQQRM" opacity="1" fill-opacity="0" stroke="#000000" stroke-width="1" stroke-opacity="0"></use></g></g><g><use xlink:href="#hXBFshSq9" opacity="1" fill="#0052b4" fill-opacity="1"></use><g><use xlink:href="#hXBFshSq9" opacity="1" fill-opacity="0" stroke="#000000" stroke-width="1" stroke-opacity="0"></use></g></g></g></g></svg>